<mxfile host="app.diagrams.net" modified="2022-07-21T10:02:48.145Z" agent="5.0 (Windows NT 10.0; Win64; x64) AppleWebKit/537.36 (KHTML, like Gecko) Chrome/103.0.0.0 Safari/537.36" etag="YJ9MuBZUMwlnxsktdpmH" version="20.1.3" type="github">
  <diagram name="Page-1" id="822b0af5-4adb-64df-f703-e8dfc1f81529">
    <mxGraphModel dx="7110" dy="3525" grid="1" gridSize="10" guides="1" tooltips="1" connect="1" arrows="1" fold="1" page="1" pageScale="1" pageWidth="1100" pageHeight="850" background="none" math="0" shadow="0">
      <root>
        <object label="" id="0">
          <mxCell />
        </object>
        <mxCell id="1" parent="0" />
        <mxCell id="ucbyhV33MGWC6zu0jV7y-2" value="Виртуальные машины" style="rounded=0;whiteSpace=wrap;html=1;fillColor=#cdeb8b;labelPosition=center;verticalLabelPosition=top;align=left;verticalAlign=bottom;fontSize=24;strokeColor=#006633;" parent="1" vertex="1">
          <mxGeometry x="343.49999999999994" y="1833.9299999999998" width="730" height="530" as="geometry" />
        </mxCell>
        <mxCell id="ucbyhV33MGWC6zu0jV7y-1" value="Физический сервер&lt;br style=&quot;font-size: 16px;&quot;&gt;Гипервизор - ESXI 7.0" style="verticalLabelPosition=bottom;sketch=0;aspect=fixed;html=1;verticalAlign=top;strokeColor=none;align=center;outlineConnect=0;shape=mxgraph.citrix.tower_server;fontSize=16;labelPosition=center;" parent="1" vertex="1">
          <mxGeometry x="323.5" y="2054.18" width="61.18" height="80" as="geometry" />
        </mxCell>
        <mxCell id="ucbyhV33MGWC6zu0jV7y-4" value="" style="verticalLabelPosition=bottom;sketch=0;aspect=fixed;html=1;verticalAlign=top;strokeColor=none;align=center;outlineConnect=0;shape=mxgraph.citrix.globe;fontSize=24;fillColor=none;" parent="1" vertex="1">
          <mxGeometry x="40.66" y="1820" width="80" height="76.43" as="geometry" />
        </mxCell>
        <mxCell id="ucbyhV33MGWC6zu0jV7y-5" value="Пользователи" style="verticalLabelPosition=middle;sketch=0;aspect=fixed;html=1;verticalAlign=middle;strokeColor=none;align=left;outlineConnect=0;shape=mxgraph.citrix.users;fontSize=24;fillColor=none;labelPosition=right;" parent="1" vertex="1">
          <mxGeometry x="97.16000000000001" y="1856.6799999999998" width="35.18" height="30" as="geometry" />
        </mxCell>
        <mxCell id="ucbyhV33MGWC6zu0jV7y-7" value="Web" style="verticalLabelPosition=bottom;sketch=0;aspect=fixed;html=1;verticalAlign=top;strokeColor=none;align=center;outlineConnect=0;shape=mxgraph.citrix.web_server;fontSize=14;fillColor=none;" parent="1" vertex="1">
          <mxGeometry x="615.16" y="1905.1799999999998" width="76.5" height="90" as="geometry" />
        </mxCell>
        <mxCell id="ucbyhV33MGWC6zu0jV7y-8" value="&amp;nbsp;MariaDB / Master" style="verticalLabelPosition=bottom;sketch=0;aspect=fixed;html=1;verticalAlign=top;strokeColor=none;align=center;outlineConnect=0;shape=mxgraph.citrix.database_server;fontSize=14;fillColor=none;" parent="1" vertex="1">
          <mxGeometry x="945.1599999999999" y="1905.1799999999998" width="80" height="90" as="geometry" />
        </mxCell>
        <mxCell id="ucbyhV33MGWC6zu0jV7y-9" value="MariaDB / Slave" style="verticalLabelPosition=bottom;sketch=0;aspect=fixed;html=1;verticalAlign=top;strokeColor=none;align=center;outlineConnect=0;shape=mxgraph.citrix.database_server;fontSize=14;fillColor=none;" parent="1" vertex="1">
          <mxGeometry x="945.1599999999999" y="2195.18" width="80" height="90" as="geometry" />
        </mxCell>
        <mxCell id="ucbyhV33MGWC6zu0jV7y-10" value="Redis" style="verticalLabelPosition=bottom;sketch=0;aspect=fixed;html=1;verticalAlign=top;strokeColor=none;align=center;outlineConnect=0;shape=mxgraph.citrix.cache_server;fontSize=14;fillColor=none;" parent="1" vertex="1">
          <mxGeometry x="785.16" y="2195.18" width="71" height="97.5" as="geometry" />
        </mxCell>
        <mxCell id="ucbyhV33MGWC6zu0jV7y-11" value="&lt;span style=&quot;color: rgb(0, 0, 0); font-family: Helvetica; font-size: 14px; font-style: normal; font-variant-ligatures: normal; font-variant-caps: normal; font-weight: 400; letter-spacing: normal; orphans: 2; text-align: center; text-indent: 0px; text-transform: none; widows: 2; word-spacing: 0px; -webkit-text-stroke-width: 0px; text-decoration-thickness: initial; text-decoration-style: initial; text-decoration-color: initial; float: none; display: inline !important;&quot;&gt;Nginx/Naxsi&lt;/span&gt;&lt;br style=&quot;font-size: 14px;&quot;&gt;" style="verticalLabelPosition=bottom;sketch=0;aspect=fixed;html=1;verticalAlign=top;strokeColor=none;align=center;outlineConnect=0;shape=mxgraph.citrix.proxy_server;fontSize=14;fillColor=none;labelBackgroundColor=none;" parent="1" vertex="1">
          <mxGeometry x="455.16" y="2050.18" width="76.5" height="90" as="geometry" />
        </mxCell>
        <mxCell id="ucbyhV33MGWC6zu0jV7y-18" value="Web" style="verticalLabelPosition=bottom;sketch=0;aspect=fixed;html=1;verticalAlign=top;strokeColor=none;align=center;outlineConnect=0;shape=mxgraph.citrix.web_server;fontSize=14;fillColor=none;" parent="1" vertex="1">
          <mxGeometry x="615.16" y="2198.93" width="76.5" height="90" as="geometry" />
        </mxCell>
        <mxCell id="ucbyhV33MGWC6zu0jV7y-21" value="" style="endArrow=classic;html=1;rounded=1;fontSize=18;strokeWidth=1;strokeColor=#000312;fillColor=#0050ef;jumpStyle=arc;verticalAlign=bottom;align=center;horizontal=0;labelPosition=center;verticalLabelPosition=top;spacingTop=0;spacing=0;spacingLeft=0;spacingRight=8;" parent="1" source="ucbyhV33MGWC6zu0jV7y-8" target="ucbyhV33MGWC6zu0jV7y-9" edge="1">
          <mxGeometry width="50" height="50" relative="1" as="geometry">
            <mxPoint x="853.4999999999999" y="1963.9299999999998" as="sourcePoint" />
            <mxPoint x="1013.4999999999999" y="2323.93" as="targetPoint" />
          </mxGeometry>
        </mxCell>
        <mxCell id="ucbyhV33MGWC6zu0jV7y-24" value="" style="endArrow=classic;startArrow=classic;html=1;rounded=1;fontSize=18;strokeColor=#000312;strokeWidth=1;jumpStyle=arc;" parent="1" source="ucbyhV33MGWC6zu0jV7y-10" target="ucbyhV33MGWC6zu0jV7y-18" edge="1">
          <mxGeometry width="50" height="50" relative="1" as="geometry">
            <mxPoint x="513.5000000000001" y="2163.93" as="sourcePoint" />
            <mxPoint x="553.5" y="2113.93" as="targetPoint" />
          </mxGeometry>
        </mxCell>
        <mxCell id="ucbyhV33MGWC6zu0jV7y-25" value="" style="endArrow=classic;startArrow=classic;html=1;rounded=1;fontSize=18;strokeColor=#000312;strokeWidth=1;jumpStyle=arc;" parent="1" source="ucbyhV33MGWC6zu0jV7y-10" target="ucbyhV33MGWC6zu0jV7y-7" edge="1">
          <mxGeometry width="50" height="50" relative="1" as="geometry">
            <mxPoint x="513.5000000000001" y="2163.93" as="sourcePoint" />
            <mxPoint x="563.5" y="2113.93" as="targetPoint" />
          </mxGeometry>
        </mxCell>
        <mxCell id="ucbyhV33MGWC6zu0jV7y-26" value="" style="endArrow=classic;startArrow=classic;html=1;rounded=1;fontSize=18;strokeColor=#000312;strokeWidth=1;jumpStyle=arc;" parent="1" source="ucbyhV33MGWC6zu0jV7y-7" target="ucbyhV33MGWC6zu0jV7y-8" edge="1">
          <mxGeometry width="50" height="50" relative="1" as="geometry">
            <mxPoint x="513.5000000000001" y="2163.93" as="sourcePoint" />
            <mxPoint x="563.5" y="2113.93" as="targetPoint" />
          </mxGeometry>
        </mxCell>
        <mxCell id="ucbyhV33MGWC6zu0jV7y-27" value="" style="endArrow=classic;startArrow=classic;html=1;rounded=1;fontSize=18;strokeColor=#000312;strokeWidth=1;jumpStyle=arc;" parent="1" source="ucbyhV33MGWC6zu0jV7y-8" target="ucbyhV33MGWC6zu0jV7y-18" edge="1">
          <mxGeometry width="50" height="50" relative="1" as="geometry">
            <mxPoint x="513.5000000000001" y="2163.93" as="sourcePoint" />
            <mxPoint x="563.5" y="2113.93" as="targetPoint" />
          </mxGeometry>
        </mxCell>
        <mxCell id="ucbyhV33MGWC6zu0jV7y-28" value="&lt;font style=&quot;font-size: 24px;&quot;&gt;Zabbix agents&lt;/font&gt;" style="verticalLabelPosition=middle;sketch=0;aspect=fixed;html=1;verticalAlign=middle;strokeColor=none;align=left;outlineConnect=0;shape=mxgraph.citrix.inspection;fontSize=18;fillColor=none;labelPosition=right;" parent="1" vertex="1">
          <mxGeometry x="353.5" y="2291.43" width="53.85" height="50" as="geometry" />
        </mxCell>
        <mxCell id="ucbyhV33MGWC6zu0jV7y-30" value="" style="endArrow=classic;startArrow=classic;html=1;rounded=1;fontSize=24;strokeColor=#000312;strokeWidth=1;jumpStyle=arc;" parent="1" source="ucbyhV33MGWC6zu0jV7y-11" target="ucbyhV33MGWC6zu0jV7y-7" edge="1">
          <mxGeometry width="50" height="50" relative="1" as="geometry">
            <mxPoint x="513.5000000000001" y="2163.93" as="sourcePoint" />
            <mxPoint x="563.5" y="2113.93" as="targetPoint" />
          </mxGeometry>
        </mxCell>
        <mxCell id="ucbyhV33MGWC6zu0jV7y-32" value="" style="endArrow=classic;startArrow=classic;html=1;rounded=1;fontSize=24;strokeColor=#000312;strokeWidth=1;jumpStyle=arc;" parent="1" source="ucbyhV33MGWC6zu0jV7y-11" target="ucbyhV33MGWC6zu0jV7y-18" edge="1">
          <mxGeometry width="50" height="50" relative="1" as="geometry">
            <mxPoint x="513.5000000000001" y="2163.93" as="sourcePoint" />
            <mxPoint x="563.5" y="2113.93" as="targetPoint" />
          </mxGeometry>
        </mxCell>
        <mxCell id="ucbyhV33MGWC6zu0jV7y-36" value="Роутер" style="verticalLabelPosition=middle;sketch=0;aspect=fixed;html=1;verticalAlign=middle;strokeColor=none;align=right;outlineConnect=0;shape=mxgraph.citrix.router;labelBackgroundColor=none;fontSize=24;fillColor=#E6FFCC;labelPosition=left;" parent="1" vertex="1">
          <mxGeometry x="163.50000000000006" y="2075.93" width="55" height="36.5" as="geometry" />
        </mxCell>
        <mxCell id="ucbyhV33MGWC6zu0jV7y-37" value="" style="shape=flexArrow;endArrow=classic;startArrow=classic;html=1;rounded=1;fontSize=14;strokeColor=#000312;strokeWidth=1;jumpStyle=arc;" parent="1" source="ucbyhV33MGWC6zu0jV7y-36" target="ucbyhV33MGWC6zu0jV7y-1" edge="1">
          <mxGeometry width="100" height="100" relative="1" as="geometry">
            <mxPoint x="153.50000000000006" y="2178.93" as="sourcePoint" />
            <mxPoint x="253.50000000000003" y="2078.93" as="targetPoint" />
          </mxGeometry>
        </mxCell>
        <mxCell id="ucbyhV33MGWC6zu0jV7y-38" value="" style="shape=flexArrow;endArrow=classic;html=1;rounded=1;fontSize=14;strokeColor=#000312;strokeWidth=1;jumpStyle=arc;" parent="1" source="ucbyhV33MGWC6zu0jV7y-5" target="ucbyhV33MGWC6zu0jV7y-36" edge="1">
          <mxGeometry width="50" height="50" relative="1" as="geometry">
            <mxPoint x="173.50000000000006" y="2148.93" as="sourcePoint" />
            <mxPoint x="223.50000000000006" y="2098.93" as="targetPoint" />
          </mxGeometry>
        </mxCell>
        <mxCell id="ucbyhV33MGWC6zu0jV7y-39" value="&lt;font style=&quot;font-size: 24px;&quot;&gt;Zabbix server&lt;/font&gt;" style="verticalLabelPosition=bottom;sketch=0;aspect=fixed;html=1;verticalAlign=top;strokeColor=none;align=center;outlineConnect=0;shape=mxgraph.citrix.edgesight_server;labelBackgroundColor=none;fontSize=14;fillColor=#E6FFCC;" parent="1" vertex="1">
          <mxGeometry x="55.84000000000003" y="2263.93" width="76.5" height="90" as="geometry" />
        </mxCell>
        <mxCell id="ucbyhV33MGWC6zu0jV7y-41" value="" style="shape=flexArrow;endArrow=classic;startArrow=classic;html=1;rounded=1;fontSize=24;strokeColor=#000312;strokeWidth=1;jumpStyle=arc;" parent="1" source="ucbyhV33MGWC6zu0jV7y-39" target="ucbyhV33MGWC6zu0jV7y-36" edge="1">
          <mxGeometry width="100" height="100" relative="1" as="geometry">
            <mxPoint x="153.50000000000006" y="1598.9299999999998" as="sourcePoint" />
            <mxPoint x="253.50000000000003" y="1498.9299999999998" as="targetPoint" />
          </mxGeometry>
        </mxCell>
        <mxCell id="ucbyhV33MGWC6zu0jV7y-43" value="&lt;div style=&quot;text-align: justify;&quot;&gt;&lt;span style=&quot;background-color: initial;&quot;&gt;Nginx/Naxsi: Nginx - Прокси http сервер и балансировщик нагрузки, Naxsi -&amp;nbsp;&lt;/span&gt;&lt;span style=&quot;color: rgb(17, 17, 17); font-family: -apple-system, BlinkMacSystemFont, Arial, sans-serif; background-color: rgb(255, 255, 255);&quot;&gt;файрвол веб-приложений (WAF) для NGINX,&lt;/span&gt;&lt;/div&gt;&lt;span style=&quot;color: rgb(17, 17, 17); font-family: -apple-system, BlinkMacSystemFont, Arial, sans-serif; background-color: rgb(255, 255, 255);&quot;&gt;&lt;div style=&quot;text-align: justify;&quot;&gt;помогающий в защите от XSS, SQL-инъекций, CSRF, Local &amp;amp; Remote file inclusions.&lt;/div&gt;&lt;/span&gt;" style="verticalLabelPosition=middle;sketch=0;aspect=fixed;html=1;verticalAlign=middle;strokeColor=none;align=left;outlineConnect=0;shape=mxgraph.citrix.proxy_server;fontSize=14;fillColor=none;labelBackgroundColor=none;labelPosition=right;" parent="1" vertex="1">
          <mxGeometry x="59.08" y="2570" width="42.5" height="50" as="geometry" />
        </mxCell>
        <mxCell id="ucbyhV33MGWC6zu0jV7y-44" value="Сайт или веб-приложение" style="verticalLabelPosition=middle;sketch=0;aspect=fixed;html=1;verticalAlign=middle;strokeColor=none;align=left;outlineConnect=0;shape=mxgraph.citrix.web_server;fontSize=14;fillColor=none;labelPosition=right;" parent="1" vertex="1">
          <mxGeometry x="59.08" y="2630" width="42.5" height="50" as="geometry" />
        </mxCell>
        <mxCell id="ucbyhV33MGWC6zu0jV7y-47" value="Redis - Сервер кэширования" style="verticalLabelPosition=middle;sketch=0;aspect=fixed;html=1;verticalAlign=middle;strokeColor=none;align=left;outlineConnect=0;shape=mxgraph.citrix.cache_server;fontSize=14;fillColor=none;labelPosition=right;" parent="1" vertex="1">
          <mxGeometry x="59.08" y="2690" width="36.41" height="50" as="geometry" />
        </mxCell>
        <mxCell id="ucbyhV33MGWC6zu0jV7y-48" value="База данных - два экземпляра базы данных с репликацией по схеме master/slave&amp;nbsp;" style="verticalLabelPosition=middle;sketch=0;aspect=fixed;html=1;verticalAlign=middle;strokeColor=none;align=left;outlineConnect=0;shape=mxgraph.citrix.database_server;fontSize=14;fillColor=none;labelPosition=right;" parent="1" vertex="1">
          <mxGeometry x="57.14" y="2750" width="44.44" height="50" as="geometry" />
        </mxCell>
        <mxCell id="ucbyhV33MGWC6zu0jV7y-49" value="&lt;font style=&quot;font-size: 14px;&quot;&gt;Zabbix server - сервер системы мониторинга, собирающий информацию с агентов, установленных на виртуальных машинах.&lt;br&gt;При отсутствии отклика от агентов или выявлении, что система находится в состоянии, которое угрожает ее функционированию&lt;br&gt;(например, при исчерпании доступной оперативной памяти, дискового пространства и т.д.), сервер посылает оповещение заданному кругу лиц&lt;br&gt;посредством настроенных каналов коммуникации (электронная почта, телеграмм, тревожный звонок и т.д.).&amp;nbsp;&lt;br&gt;&lt;/font&gt;" style="verticalLabelPosition=middle;sketch=0;aspect=fixed;html=1;verticalAlign=middle;strokeColor=none;align=left;outlineConnect=0;shape=mxgraph.citrix.edgesight_server;labelBackgroundColor=none;fontSize=14;fillColor=#E6FFCC;labelPosition=right;" parent="1" vertex="1">
          <mxGeometry x="59.08" y="2820" width="42.5" height="50" as="geometry" />
        </mxCell>
        <mxCell id="ucbyhV33MGWC6zu0jV7y-50" value="Технические &lt;br&gt;специалисты" style="verticalLabelPosition=bottom;sketch=0;aspect=fixed;html=1;verticalAlign=top;strokeColor=none;align=center;outlineConnect=0;shape=mxgraph.citrix.users;labelBackgroundColor=none;fontSize=14;fillColor=#E6FFCC;" parent="1" vertex="1">
          <mxGeometry x="245.16000000000003" y="2281.43" width="64.5" height="55" as="geometry" />
        </mxCell>
        <mxCell id="ucbyhV33MGWC6zu0jV7y-52" value="" style="endArrow=classic;html=1;rounded=1;fontSize=14;strokeColor=#000312;strokeWidth=1;jumpStyle=arc;" parent="1" source="ucbyhV33MGWC6zu0jV7y-39" target="ucbyhV33MGWC6zu0jV7y-50" edge="1">
          <mxGeometry width="50" height="50" relative="1" as="geometry">
            <mxPoint x="105.16000000000001" y="2393.93" as="sourcePoint" />
            <mxPoint x="155.16000000000003" y="2343.93" as="targetPoint" />
          </mxGeometry>
        </mxCell>
        <mxCell id="ucbyhV33MGWC6zu0jV7y-54" value="&lt;div style=&quot;text-align: justify;&quot;&gt;&lt;span style=&quot;font-size: 18px; background-color: initial;&quot;&gt;Конкретные детали конфигурации системы будут уточняться после сбора полной информации о текущем проекте сайта&lt;/span&gt;&lt;/div&gt;&lt;span style=&quot;font-size: 18px;&quot;&gt;&lt;div style=&quot;text-align: justify;&quot;&gt;&lt;span style=&quot;background-color: initial;&quot;&gt;и характеристиках доступного серверного оборудования. После этого будет возможно выбрать&lt;/span&gt;&lt;/div&gt;&lt;div style=&quot;text-align: justify;&quot;&gt;&lt;span style=&quot;background-color: initial;&quot;&gt;&amp;nbsp;схему резервирования жестких дисков и порядок выполнения бэкапов системы.&lt;/span&gt;&lt;/div&gt;&lt;/span&gt;" style="text;html=1;resizable=0;autosize=1;align=center;verticalAlign=middle;points=[];fillColor=none;strokeColor=none;rounded=0;labelBackgroundColor=none;fontSize=14;" parent="1" vertex="1">
          <mxGeometry x="44.83" y="2930" width="1040" height="80" as="geometry" />
        </mxCell>
        <mxCell id="8OvUhMNelxrM9wnSVEM4-1" value="&lt;font face=&quot;Tahoma&quot; color=&quot;#000312&quot; style=&quot;font-size: 36px;&quot;&gt;&lt;b style=&quot;&quot;&gt;Минимальная&lt;/b&gt;&lt;/font&gt;" style="text;html=1;resizable=0;autosize=1;align=center;verticalAlign=middle;points=[];fillColor=none;strokeColor=none;rounded=0;" vertex="1" parent="1">
          <mxGeometry x="30.58" y="20" width="290" height="60" as="geometry" />
        </mxCell>
        <mxCell id="8OvUhMNelxrM9wnSVEM4-26" value="Виртуальные машины" style="rounded=0;whiteSpace=wrap;html=1;fillColor=#cdeb8b;labelPosition=center;verticalLabelPosition=top;align=left;verticalAlign=bottom;fontSize=24;strokeColor=#006633;" vertex="1" parent="1">
          <mxGeometry x="378.42" y="973.9300000000001" width="702.15" height="530" as="geometry" />
        </mxCell>
        <mxCell id="8OvUhMNelxrM9wnSVEM4-27" value="Физический сервер&lt;br style=&quot;font-size: 16px;&quot;&gt;Гипервизор - ESXI 7.0" style="verticalLabelPosition=bottom;sketch=0;aspect=fixed;html=1;verticalAlign=top;strokeColor=none;align=center;outlineConnect=0;shape=mxgraph.citrix.tower_server;fontSize=16;labelPosition=center;" vertex="1" parent="1">
          <mxGeometry x="368.42" y="1202.61" width="61.18" height="80" as="geometry" />
        </mxCell>
        <mxCell id="8OvUhMNelxrM9wnSVEM4-28" value="" style="verticalLabelPosition=bottom;sketch=0;aspect=fixed;html=1;verticalAlign=top;strokeColor=none;align=center;outlineConnect=0;shape=mxgraph.citrix.globe;fontSize=24;fillColor=none;" vertex="1" parent="1">
          <mxGeometry x="49.669999999999995" y="1190.18" width="80" height="76.43" as="geometry" />
        </mxCell>
        <mxCell id="8OvUhMNelxrM9wnSVEM4-29" value="Пользователи" style="verticalLabelPosition=bottom;sketch=0;aspect=fixed;html=1;verticalAlign=top;strokeColor=none;align=center;outlineConnect=0;shape=mxgraph.citrix.users;fontSize=24;fillColor=none;labelPosition=center;" vertex="1" parent="1">
          <mxGeometry x="104.23" y="1227.61" width="35.18" height="30" as="geometry" />
        </mxCell>
        <mxCell id="8OvUhMNelxrM9wnSVEM4-30" value="PHP-FPM" style="verticalLabelPosition=bottom;sketch=0;aspect=fixed;html=1;verticalAlign=top;strokeColor=none;align=center;outlineConnect=0;shape=mxgraph.citrix.web_server;fontSize=14;fillColor=none;" vertex="1" parent="1">
          <mxGeometry x="768.42" y="1190.1799999999998" width="76.5" height="90" as="geometry" />
        </mxCell>
        <mxCell id="8OvUhMNelxrM9wnSVEM4-31" value="&amp;nbsp;MariaDB / Master" style="verticalLabelPosition=bottom;sketch=0;aspect=fixed;html=1;verticalAlign=top;strokeColor=none;align=center;outlineConnect=0;shape=mxgraph.citrix.database_server;fontSize=14;fillColor=none;" vertex="1" parent="1">
          <mxGeometry x="965.8199999999997" y="1039.9999999999998" width="80" height="90" as="geometry" />
        </mxCell>
        <mxCell id="8OvUhMNelxrM9wnSVEM4-32" value="MariaDB / Slave" style="verticalLabelPosition=bottom;sketch=0;aspect=fixed;html=1;verticalAlign=top;strokeColor=none;align=center;outlineConnect=0;shape=mxgraph.citrix.database_server;fontSize=14;fillColor=none;" vertex="1" parent="1">
          <mxGeometry x="965.8199999999997" y="1319.9999999999998" width="80" height="90" as="geometry" />
        </mxCell>
        <mxCell id="8OvUhMNelxrM9wnSVEM4-34" value="&lt;span style=&quot;color: rgb(0, 0, 0); font-family: Helvetica; font-size: 14px; font-style: normal; font-variant-ligatures: normal; font-variant-caps: normal; font-weight: 400; letter-spacing: normal; orphans: 2; text-align: center; text-indent: 0px; text-transform: none; widows: 2; word-spacing: 0px; -webkit-text-stroke-width: 0px; text-decoration-thickness: initial; text-decoration-style: initial; text-decoration-color: initial; float: none; display: inline !important;&quot;&gt;Nginx/Naxsi&lt;/span&gt;&lt;br style=&quot;font-size: 14px;&quot;&gt;" style="verticalLabelPosition=bottom;sketch=0;aspect=fixed;html=1;verticalAlign=top;strokeColor=none;align=center;outlineConnect=0;shape=mxgraph.citrix.proxy_server;fontSize=14;fillColor=none;labelBackgroundColor=none;" vertex="1" parent="1">
          <mxGeometry x="528.5" y="1193.9299999999998" width="76.5" height="90" as="geometry" />
        </mxCell>
        <mxCell id="8OvUhMNelxrM9wnSVEM4-36" value="" style="endArrow=classic;html=1;rounded=1;fontSize=18;strokeWidth=1;strokeColor=#000312;fillColor=#0050ef;jumpStyle=arc;verticalAlign=bottom;align=center;horizontal=0;labelPosition=center;verticalLabelPosition=top;spacingTop=0;spacing=0;spacingLeft=0;spacingRight=8;" edge="1" parent="1" source="8OvUhMNelxrM9wnSVEM4-31" target="8OvUhMNelxrM9wnSVEM4-32">
          <mxGeometry width="50" height="50" relative="1" as="geometry">
            <mxPoint x="860.5699999999998" y="1103.9299999999998" as="sourcePoint" />
            <mxPoint x="1020.5699999999998" y="1463.9299999999998" as="targetPoint" />
          </mxGeometry>
        </mxCell>
        <mxCell id="8OvUhMNelxrM9wnSVEM4-39" value="" style="endArrow=classic;startArrow=classic;html=1;rounded=1;fontSize=18;strokeColor=#000312;strokeWidth=1;jumpStyle=arc;" edge="1" parent="1" source="8OvUhMNelxrM9wnSVEM4-30" target="8OvUhMNelxrM9wnSVEM4-31">
          <mxGeometry width="50" height="50" relative="1" as="geometry">
            <mxPoint x="520.57" y="1303.9299999999998" as="sourcePoint" />
            <mxPoint x="570.5699999999999" y="1253.9299999999998" as="targetPoint" />
          </mxGeometry>
        </mxCell>
        <mxCell id="8OvUhMNelxrM9wnSVEM4-42" value="" style="endArrow=classic;startArrow=classic;html=1;rounded=1;fontSize=24;strokeColor=#000312;strokeWidth=1;jumpStyle=arc;" edge="1" parent="1" source="8OvUhMNelxrM9wnSVEM4-34" target="8OvUhMNelxrM9wnSVEM4-30">
          <mxGeometry width="50" height="50" relative="1" as="geometry">
            <mxPoint x="520.57" y="1303.9299999999998" as="sourcePoint" />
            <mxPoint x="570.5699999999999" y="1253.9299999999998" as="targetPoint" />
          </mxGeometry>
        </mxCell>
        <mxCell id="8OvUhMNelxrM9wnSVEM4-44" value="Роутер" style="verticalLabelPosition=bottom;sketch=0;aspect=fixed;html=1;verticalAlign=top;strokeColor=none;align=center;outlineConnect=0;shape=mxgraph.citrix.router;labelBackgroundColor=none;fontSize=24;fillColor=#E6FFCC;labelPosition=center;" vertex="1" parent="1">
          <mxGeometry x="238.42000000000004" y="1224.36" width="55" height="36.5" as="geometry" />
        </mxCell>
        <mxCell id="8OvUhMNelxrM9wnSVEM4-45" value="" style="shape=flexArrow;endArrow=classic;startArrow=classic;html=1;rounded=1;fontSize=14;strokeColor=#000312;strokeWidth=1;jumpStyle=arc;" edge="1" parent="1" source="8OvUhMNelxrM9wnSVEM4-44" target="8OvUhMNelxrM9wnSVEM4-27">
          <mxGeometry width="100" height="100" relative="1" as="geometry">
            <mxPoint x="160.57000000000002" y="1318.9299999999998" as="sourcePoint" />
            <mxPoint x="260.57000000000005" y="1218.9299999999998" as="targetPoint" />
          </mxGeometry>
        </mxCell>
        <mxCell id="8OvUhMNelxrM9wnSVEM4-46" value="" style="shape=flexArrow;endArrow=classic;html=1;rounded=1;fontSize=14;strokeColor=#000312;strokeWidth=1;jumpStyle=arc;" edge="1" parent="1" source="8OvUhMNelxrM9wnSVEM4-29" target="8OvUhMNelxrM9wnSVEM4-44">
          <mxGeometry width="50" height="50" relative="1" as="geometry">
            <mxPoint x="180.57000000000002" y="1288.9299999999998" as="sourcePoint" />
            <mxPoint x="230.57000000000002" y="1238.9299999999998" as="targetPoint" />
          </mxGeometry>
        </mxCell>
        <mxCell id="8OvUhMNelxrM9wnSVEM4-51" value="OS CentOS 8&lt;br&gt;" style="rounded=0;whiteSpace=wrap;html=1;fillColor=#cdeb8b;labelPosition=center;verticalLabelPosition=top;align=left;verticalAlign=bottom;fontSize=24;strokeColor=#006633;" vertex="1" parent="1">
          <mxGeometry x="373.58" y="90" width="693.42" height="530" as="geometry" />
        </mxCell>
        <mxCell id="8OvUhMNelxrM9wnSVEM4-53" value="" style="verticalLabelPosition=bottom;sketch=0;aspect=fixed;html=1;verticalAlign=top;strokeColor=none;align=center;outlineConnect=0;shape=mxgraph.citrix.globe;fontSize=24;fillColor=none;" vertex="1" parent="1">
          <mxGeometry x="44.82999999999999" y="310" width="80" height="76.43" as="geometry" />
        </mxCell>
        <mxCell id="8OvUhMNelxrM9wnSVEM4-54" value="Пользователи" style="verticalLabelPosition=bottom;sketch=0;aspect=fixed;html=1;verticalAlign=top;strokeColor=none;align=center;outlineConnect=0;shape=mxgraph.citrix.users;fontSize=24;fillColor=none;labelPosition=center;" vertex="1" parent="1">
          <mxGeometry x="106.98" y="343.24999999999983" width="35.18" height="30" as="geometry" />
        </mxCell>
        <mxCell id="8OvUhMNelxrM9wnSVEM4-56" value="MariaDB" style="verticalLabelPosition=bottom;sketch=0;aspect=fixed;html=1;verticalAlign=top;strokeColor=none;align=center;outlineConnect=0;shape=mxgraph.citrix.database_server;fontSize=14;fillColor=none;" vertex="1" parent="1">
          <mxGeometry x="938.6599999999999" y="309.99999999999983" width="80" height="90" as="geometry" />
        </mxCell>
        <mxCell id="8OvUhMNelxrM9wnSVEM4-59" value="&lt;span style=&quot;color: rgb(0, 0, 0); font-family: Helvetica; font-size: 14px; font-style: normal; font-variant-ligatures: normal; font-variant-caps: normal; font-weight: 400; letter-spacing: normal; orphans: 2; text-align: center; text-indent: 0px; text-transform: none; widows: 2; word-spacing: 0px; -webkit-text-stroke-width: 0px; text-decoration-thickness: initial; text-decoration-style: initial; text-decoration-color: initial; float: none; display: inline !important;&quot;&gt;Nginx/Naxsi&lt;/span&gt;&lt;br style=&quot;font-size: 14px;&quot;&gt;" style="verticalLabelPosition=bottom;sketch=0;aspect=fixed;html=1;verticalAlign=top;strokeColor=none;align=center;outlineConnect=0;shape=mxgraph.citrix.proxy_server;fontSize=14;fillColor=none;labelBackgroundColor=none;" vertex="1" parent="1">
          <mxGeometry x="443.58000000000004" y="313.24999999999983" width="76.5" height="90" as="geometry" />
        </mxCell>
        <mxCell id="8OvUhMNelxrM9wnSVEM4-60" value="PHP-FPM" style="verticalLabelPosition=bottom;sketch=0;aspect=fixed;html=1;verticalAlign=top;strokeColor=none;align=center;outlineConnect=0;shape=mxgraph.citrix.web_server;fontSize=14;fillColor=none;" vertex="1" parent="1">
          <mxGeometry x="700" y="313.24999999999983" width="76.5" height="90" as="geometry" />
        </mxCell>
        <mxCell id="8OvUhMNelxrM9wnSVEM4-65" value="" style="endArrow=classic;startArrow=classic;html=1;rounded=1;fontSize=18;strokeColor=#000312;strokeWidth=1;jumpStyle=arc;" edge="1" parent="1" source="8OvUhMNelxrM9wnSVEM4-56" target="8OvUhMNelxrM9wnSVEM4-60">
          <mxGeometry width="50" height="50" relative="1" as="geometry">
            <mxPoint x="507.00000000000006" y="419.99999999999983" as="sourcePoint" />
            <mxPoint x="557" y="369.99999999999983" as="targetPoint" />
          </mxGeometry>
        </mxCell>
        <mxCell id="8OvUhMNelxrM9wnSVEM4-68" value="" style="endArrow=classic;startArrow=classic;html=1;rounded=1;fontSize=24;strokeColor=#000312;strokeWidth=1;jumpStyle=arc;" edge="1" parent="1" source="8OvUhMNelxrM9wnSVEM4-59" target="8OvUhMNelxrM9wnSVEM4-60">
          <mxGeometry width="50" height="50" relative="1" as="geometry">
            <mxPoint x="507.00000000000006" y="419.99999999999983" as="sourcePoint" />
            <mxPoint x="557" y="369.99999999999983" as="targetPoint" />
          </mxGeometry>
        </mxCell>
        <mxCell id="8OvUhMNelxrM9wnSVEM4-69" value="Роутер" style="verticalLabelPosition=bottom;sketch=0;aspect=fixed;html=1;verticalAlign=top;strokeColor=none;align=center;outlineConnect=0;shape=mxgraph.citrix.router;labelBackgroundColor=none;fontSize=24;fillColor=#E6FFCC;labelPosition=center;" vertex="1" parent="1">
          <mxGeometry x="256.89000000000004" y="339.99999999999983" width="55" height="36.5" as="geometry" />
        </mxCell>
        <mxCell id="8OvUhMNelxrM9wnSVEM4-70" value="" style="shape=flexArrow;endArrow=classic;startArrow=classic;html=1;rounded=1;fontSize=14;strokeColor=#000312;strokeWidth=1;jumpStyle=arc;" edge="1" parent="1" source="8OvUhMNelxrM9wnSVEM4-69" target="8OvUhMNelxrM9wnSVEM4-59">
          <mxGeometry width="100" height="100" relative="1" as="geometry">
            <mxPoint x="147.00000000000006" y="434.99999999999983" as="sourcePoint" />
            <mxPoint x="317.00000000000006" y="350.24999999999994" as="targetPoint" />
          </mxGeometry>
        </mxCell>
        <mxCell id="8OvUhMNelxrM9wnSVEM4-71" value="" style="shape=flexArrow;endArrow=classic;html=1;rounded=1;fontSize=14;strokeColor=#000312;strokeWidth=1;jumpStyle=arc;labelPosition=center;verticalLabelPosition=bottom;align=center;verticalAlign=top;" edge="1" parent="1" source="8OvUhMNelxrM9wnSVEM4-54" target="8OvUhMNelxrM9wnSVEM4-69">
          <mxGeometry width="50" height="50" relative="1" as="geometry">
            <mxPoint x="167.00000000000006" y="404.99999999999983" as="sourcePoint" />
            <mxPoint x="217.00000000000006" y="354.99999999999983" as="targetPoint" />
          </mxGeometry>
        </mxCell>
        <mxCell id="8OvUhMNelxrM9wnSVEM4-76" value="&lt;font face=&quot;Tahoma&quot; color=&quot;#000312&quot;&gt;&lt;span style=&quot;font-size: 36px;&quot;&gt;&lt;b&gt;Промежуточная&lt;/b&gt;&lt;/span&gt;&lt;/font&gt;" style="text;html=1;resizable=0;autosize=1;align=center;verticalAlign=middle;points=[];fillColor=none;strokeColor=none;rounded=0;" vertex="1" parent="1">
          <mxGeometry x="30.58" y="860" width="330" height="60" as="geometry" />
        </mxCell>
        <mxCell id="8OvUhMNelxrM9wnSVEM4-81" value="&lt;font face=&quot;Tahoma&quot; color=&quot;#000312&quot;&gt;&lt;span style=&quot;font-size: 36px;&quot;&gt;&lt;b&gt;Повышенной надежности&lt;/b&gt;&lt;/span&gt;&lt;/font&gt;" style="text;html=1;resizable=0;autosize=1;align=center;verticalAlign=middle;points=[];fillColor=none;strokeColor=none;rounded=0;" vertex="1" parent="1">
          <mxGeometry x="29.39" y="1710" width="510" height="60" as="geometry" />
        </mxCell>
      </root>
    </mxGraphModel>
  </diagram>
</mxfile>
